<mxfile host="app.diagrams.net" modified="2022-10-31T06:52:00.396Z" agent="5.0 (Windows NT 10.0; Win64; x64) AppleWebKit/537.36 (KHTML, like Gecko) Chrome/107.0.0.0 Safari/537.36 Edg/107.0.1418.26" etag="Mz-EBLNlkHVnRdSuujZX" version="20.5.1" type="github">
  <diagram id="C5RBs43oDa-KdzZeNtuy" name="Page-1">
    <mxGraphModel dx="1550" dy="859" grid="1" gridSize="10" guides="1" tooltips="1" connect="1" arrows="1" fold="1" page="1" pageScale="1" pageWidth="827" pageHeight="1169" math="0" shadow="0">
      <root>
        <mxCell id="WIyWlLk6GJQsqaUBKTNV-0" />
        <mxCell id="WIyWlLk6GJQsqaUBKTNV-1" parent="WIyWlLk6GJQsqaUBKTNV-0" />
        <mxCell id="XUfUPmE4cA9INSfi4Rla-4" value="Client" style="swimlane;fontStyle=1;align=center;verticalAlign=top;childLayout=stackLayout;horizontal=1;startSize=26;horizontalStack=0;resizeParent=1;resizeParentMax=0;resizeLast=0;collapsible=1;marginBottom=0;" vertex="1" parent="WIyWlLk6GJQsqaUBKTNV-1">
          <mxGeometry x="35" y="248" width="170" height="60" as="geometry" />
        </mxCell>
        <mxCell id="XUfUPmE4cA9INSfi4Rla-6" value="" style="line;strokeWidth=1;fillColor=none;align=left;verticalAlign=middle;spacingTop=-1;spacingLeft=3;spacingRight=3;rotatable=0;labelPosition=right;points=[];portConstraint=eastwest;strokeColor=inherit;" vertex="1" parent="XUfUPmE4cA9INSfi4Rla-4">
          <mxGeometry y="26" width="170" height="8" as="geometry" />
        </mxCell>
        <mxCell id="XUfUPmE4cA9INSfi4Rla-7" value="+ someOperation(type): type" style="text;strokeColor=none;fillColor=none;align=left;verticalAlign=top;spacingLeft=4;spacingRight=4;overflow=hidden;rotatable=0;points=[[0,0.5],[1,0.5]];portConstraint=eastwest;" vertex="1" parent="XUfUPmE4cA9INSfi4Rla-4">
          <mxGeometry y="34" width="170" height="26" as="geometry" />
        </mxCell>
        <mxCell id="XUfUPmE4cA9INSfi4Rla-8" value="SimpleFactory" style="swimlane;fontStyle=1;align=center;verticalAlign=top;childLayout=stackLayout;horizontal=1;startSize=26;horizontalStack=0;resizeParent=1;resizeParentMax=0;resizeLast=0;collapsible=1;marginBottom=0;" vertex="1" parent="WIyWlLk6GJQsqaUBKTNV-1">
          <mxGeometry x="315" y="248" width="180" height="86" as="geometry" />
        </mxCell>
        <mxCell id="XUfUPmE4cA9INSfi4Rla-9" value="..." style="text;strokeColor=none;fillColor=none;align=left;verticalAlign=top;spacingLeft=4;spacingRight=4;overflow=hidden;rotatable=0;points=[[0,0.5],[1,0.5]];portConstraint=eastwest;" vertex="1" parent="XUfUPmE4cA9INSfi4Rla-8">
          <mxGeometry y="26" width="180" height="26" as="geometry" />
        </mxCell>
        <mxCell id="XUfUPmE4cA9INSfi4Rla-10" value="" style="line;strokeWidth=1;fillColor=none;align=left;verticalAlign=middle;spacingTop=-1;spacingLeft=3;spacingRight=3;rotatable=0;labelPosition=right;points=[];portConstraint=eastwest;strokeColor=inherit;" vertex="1" parent="XUfUPmE4cA9INSfi4Rla-8">
          <mxGeometry y="52" width="180" height="8" as="geometry" />
        </mxCell>
        <mxCell id="XUfUPmE4cA9INSfi4Rla-11" value="+ createProduce(type): Produce" style="text;strokeColor=none;fillColor=none;align=left;verticalAlign=top;spacingLeft=4;spacingRight=4;overflow=hidden;rotatable=0;points=[[0,0.5],[1,0.5]];portConstraint=eastwest;" vertex="1" parent="XUfUPmE4cA9INSfi4Rla-8">
          <mxGeometry y="60" width="180" height="26" as="geometry" />
        </mxCell>
        <mxCell id="XUfUPmE4cA9INSfi4Rla-12" value="«interface»&lt;br&gt;&lt;b&gt;Produce&lt;/b&gt;" style="html=1;" vertex="1" parent="WIyWlLk6GJQsqaUBKTNV-1">
          <mxGeometry x="606" y="266" width="110" height="50" as="geometry" />
        </mxCell>
        <mxCell id="XUfUPmE4cA9INSfi4Rla-17" value="" style="endArrow=block;dashed=1;endFill=0;endSize=12;html=1;rounded=0;exitX=0.5;exitY=0;exitDx=0;exitDy=0;entryX=0.5;entryY=1;entryDx=0;entryDy=0;" edge="1" parent="WIyWlLk6GJQsqaUBKTNV-1" source="XUfUPmE4cA9INSfi4Rla-20" target="XUfUPmE4cA9INSfi4Rla-12">
          <mxGeometry width="160" relative="1" as="geometry">
            <mxPoint x="557" y="406" as="sourcePoint" />
            <mxPoint x="692" y="366" as="targetPoint" />
          </mxGeometry>
        </mxCell>
        <mxCell id="XUfUPmE4cA9INSfi4Rla-18" value="" style="endArrow=block;dashed=1;endFill=0;endSize=12;html=1;rounded=0;exitX=0.5;exitY=0;exitDx=0;exitDy=0;entryX=0.5;entryY=1;entryDx=0;entryDy=0;" edge="1" parent="WIyWlLk6GJQsqaUBKTNV-1" source="XUfUPmE4cA9INSfi4Rla-24" target="XUfUPmE4cA9INSfi4Rla-12">
          <mxGeometry width="160" relative="1" as="geometry">
            <mxPoint x="757" y="406" as="sourcePoint" />
            <mxPoint x="682" y="296" as="targetPoint" />
          </mxGeometry>
        </mxCell>
        <mxCell id="XUfUPmE4cA9INSfi4Rla-19" value="Use" style="endArrow=open;endSize=12;dashed=1;html=1;rounded=0;entryX=0;entryY=0.5;entryDx=0;entryDy=0;" edge="1" parent="WIyWlLk6GJQsqaUBKTNV-1" target="XUfUPmE4cA9INSfi4Rla-9">
          <mxGeometry width="160" relative="1" as="geometry">
            <mxPoint x="205" y="287" as="sourcePoint" />
            <mxPoint x="495" y="310" as="targetPoint" />
          </mxGeometry>
        </mxCell>
        <mxCell id="XUfUPmE4cA9INSfi4Rla-20" value="ProduceA" style="swimlane;fontStyle=1;align=center;verticalAlign=top;childLayout=stackLayout;horizontal=1;startSize=26;horizontalStack=0;resizeParent=1;resizeParentMax=0;resizeLast=0;collapsible=1;marginBottom=0;" vertex="1" parent="WIyWlLk6GJQsqaUBKTNV-1">
          <mxGeometry x="465" y="410" width="160" height="60" as="geometry" />
        </mxCell>
        <mxCell id="XUfUPmE4cA9INSfi4Rla-22" value="" style="line;strokeWidth=1;fillColor=none;align=left;verticalAlign=middle;spacingTop=-1;spacingLeft=3;spacingRight=3;rotatable=0;labelPosition=right;points=[];portConstraint=eastwest;strokeColor=inherit;" vertex="1" parent="XUfUPmE4cA9INSfi4Rla-20">
          <mxGeometry y="26" width="160" height="8" as="geometry" />
        </mxCell>
        <mxCell id="XUfUPmE4cA9INSfi4Rla-23" value="+ doSome()" style="text;strokeColor=none;fillColor=none;align=left;verticalAlign=top;spacingLeft=4;spacingRight=4;overflow=hidden;rotatable=0;points=[[0,0.5],[1,0.5]];portConstraint=eastwest;" vertex="1" parent="XUfUPmE4cA9INSfi4Rla-20">
          <mxGeometry y="34" width="160" height="26" as="geometry" />
        </mxCell>
        <mxCell id="XUfUPmE4cA9INSfi4Rla-24" value="ProduceB" style="swimlane;fontStyle=1;align=center;verticalAlign=top;childLayout=stackLayout;horizontal=1;startSize=26;horizontalStack=0;resizeParent=1;resizeParentMax=0;resizeLast=0;collapsible=1;marginBottom=0;" vertex="1" parent="WIyWlLk6GJQsqaUBKTNV-1">
          <mxGeometry x="665" y="410" width="160" height="60" as="geometry" />
        </mxCell>
        <mxCell id="XUfUPmE4cA9INSfi4Rla-25" value="" style="line;strokeWidth=1;fillColor=none;align=left;verticalAlign=middle;spacingTop=-1;spacingLeft=3;spacingRight=3;rotatable=0;labelPosition=right;points=[];portConstraint=eastwest;strokeColor=inherit;" vertex="1" parent="XUfUPmE4cA9INSfi4Rla-24">
          <mxGeometry y="26" width="160" height="8" as="geometry" />
        </mxCell>
        <mxCell id="XUfUPmE4cA9INSfi4Rla-26" value="+ doSome()" style="text;strokeColor=none;fillColor=none;align=left;verticalAlign=top;spacingLeft=4;spacingRight=4;overflow=hidden;rotatable=0;points=[[0,0.5],[1,0.5]];portConstraint=eastwest;" vertex="1" parent="XUfUPmE4cA9INSfi4Rla-24">
          <mxGeometry y="34" width="160" height="26" as="geometry" />
        </mxCell>
        <mxCell id="XUfUPmE4cA9INSfi4Rla-27" value="Use" style="endArrow=open;endSize=12;dashed=1;html=1;rounded=0;exitX=1;exitY=0.5;exitDx=0;exitDy=0;" edge="1" parent="WIyWlLk6GJQsqaUBKTNV-1" source="XUfUPmE4cA9INSfi4Rla-9">
          <mxGeometry width="160" relative="1" as="geometry">
            <mxPoint x="505" y="290" as="sourcePoint" />
            <mxPoint x="605" y="287" as="targetPoint" />
          </mxGeometry>
        </mxCell>
        <mxCell id="XUfUPmE4cA9INSfi4Rla-28" value="" style="endArrow=none;dashed=1;html=1;dashPattern=1 3;strokeWidth=2;rounded=0;entryX=0;entryY=0.5;entryDx=0;entryDy=0;" edge="1" parent="WIyWlLk6GJQsqaUBKTNV-1" target="XUfUPmE4cA9INSfi4Rla-11">
          <mxGeometry width="50" height="50" relative="1" as="geometry">
            <mxPoint x="275" y="390" as="sourcePoint" />
            <mxPoint x="275" y="320" as="targetPoint" />
            <Array as="points">
              <mxPoint x="275" y="320" />
            </Array>
          </mxGeometry>
        </mxCell>
        <mxCell id="XUfUPmE4cA9INSfi4Rla-30" value="&lt;span style=&quot;&quot;&gt;...&lt;/span&gt;&lt;br style=&quot;&quot;&gt;&lt;span style=&quot;&quot;&gt;switch(type) {&lt;/span&gt;&lt;br style=&quot;&quot;&gt;&lt;span style=&quot;&quot;&gt;&lt;/span&gt;&lt;span style=&quot;&quot;&gt;&amp;nbsp; case A:&lt;/span&gt;&lt;br style=&quot;&quot;&gt;&lt;span style=&quot;&quot;&gt;&lt;/span&gt;&lt;span style=&quot;&quot;&gt;&lt;/span&gt;&lt;span style=&quot;&quot;&gt;&amp;nbsp; &amp;nbsp; return new ProduceA();&lt;/span&gt;&lt;br style=&quot;&quot;&gt;&lt;span style=&quot;&quot;&gt;&lt;/span&gt;&lt;span style=&quot;&quot;&gt;&amp;nbsp; case B:&lt;/span&gt;&lt;br style=&quot;&quot;&gt;&lt;span style=&quot;&quot;&gt;&lt;span style=&quot;&quot;&gt;&lt;/span&gt;&amp;nbsp; &amp;nbsp; r&lt;/span&gt;&lt;span style=&quot;&quot;&gt;eturn new ProduceB();&lt;/span&gt;&lt;br style=&quot;&quot;&gt;&lt;span style=&quot;&quot;&gt;...&lt;/span&gt;" style="shape=note;whiteSpace=wrap;html=1;backgroundOutline=1;darkOpacity=0.05;align=left;fillColor=#6d8764;strokeColor=#3A5431;fontColor=#ffffff;" vertex="1" parent="WIyWlLk6GJQsqaUBKTNV-1">
          <mxGeometry x="255" y="390" width="170" height="120" as="geometry" />
        </mxCell>
        <mxCell id="XUfUPmE4cA9INSfi4Rla-31" value="Produce p =&amp;nbsp; SimpleFactory.createProduce(type)&lt;br&gt;p.doSome()" style="shape=note;whiteSpace=wrap;html=1;backgroundOutline=1;darkOpacity=0.05;align=left;fillColor=#6d8764;strokeColor=#3A5431;fontColor=#ffffff;" vertex="1" parent="WIyWlLk6GJQsqaUBKTNV-1">
          <mxGeometry x="35" y="110" width="290" height="60" as="geometry" />
        </mxCell>
        <mxCell id="XUfUPmE4cA9INSfi4Rla-32" value="" style="endArrow=none;dashed=1;html=1;dashPattern=1 3;strokeWidth=2;rounded=0;entryX=0;entryY=0.5;entryDx=0;entryDy=0;entryPerimeter=0;exitX=0;exitY=0.5;exitDx=0;exitDy=0;" edge="1" parent="WIyWlLk6GJQsqaUBKTNV-1" source="XUfUPmE4cA9INSfi4Rla-7" target="XUfUPmE4cA9INSfi4Rla-31">
          <mxGeometry width="50" height="50" relative="1" as="geometry">
            <mxPoint x="5" y="300" as="sourcePoint" />
            <mxPoint x="25" y="166" as="targetPoint" />
            <Array as="points">
              <mxPoint x="5" y="295" />
              <mxPoint x="5" y="140" />
            </Array>
          </mxGeometry>
        </mxCell>
      </root>
    </mxGraphModel>
  </diagram>
</mxfile>
